<svg class="tear-mobile" viewBox="0 0 360 53" xmlns="http://www.w3.org/2000/svg"><path d="M59.3993 23.6954C57.9721 23.2808 57.4208 22.8812 56.9313 22.3912C55.1723 20.6572 53.4751 18.7724 51.5585 16.8122C48.9199 15.6814 47.9447 14.5505 46.8458 13.9474C43.7346 12.8919 43.4833 13.1935 43.1701 13.6458C40.751 13.495 40.1846 11.8364 38.8663 11.9118C37.9245 11.8395 36.9913 11.1782 36.1001 9.95164C33.1165 8.44381 32.7696 7.99147 32.4564 7.61451C31.1043 7.46373 30.3204 9.80085 28.8745 8.66999C26.7385 7.46373 26.2659 7.91607 25.6377 8.44381C22.0258 9.19772 21.3019 10.3286 20.4224 11.2333C19.7304 11.9118 18.8208 12.2888 17.6262 13.0427C14.7982 13.2688 14.4532 13.6458 14.0125 14.0982C10.3368 15.4552 8.57402 15.0782 7.72824 16.8122C7.03812 18.2447 0.440703 17.2646 0 19.3001V52.7738L0.714502 52.6457L0 53H360C356.671 50.5121 350.449 40.2589 346.899 39.505C346.711 39.2788 344.825 38.7511 341.213 37.9218C339.296 36.4893 338.762 36.7909 338.008 37.3186L333.106 36.9417C332.356 34.9061 330.184 36.5647 329.492 34.303L320.791 33.6999C316.391 30.7596 315.637 30.6842 314.883 30.5334C314.321 29.7041 313.758 28.8748 313.154 28.0455C311.427 28.4225 310.171 25.8592 308.278 26.2361C306.172 22.7681 302.84 21.7881 300.109 18.9232C299.826 19.1494 298.695 19.5263 296.779 20.1294C296.529 20.431 294.549 20.7326 290.84 21.0341C290.62 20.7326 289.331 20.2048 286.975 19.4509C284.587 18.5462 283.393 19.3001 281.759 20.2802L278.335 20.0541C277.172 18.5462 275.194 18.2447 274.47 15.9075C271.486 14.6259 271.171 14.3997 270.888 14.3997C267.495 14.0982 264.137 13.872 260.834 13.6458C258.006 14.7013 258.006 14.7013 255.053 11.9872L250.357 11.6102C248.913 10.7809 246.304 10.5548 242.503 10.9317C240.628 8.5192 237.665 8.5192 236.628 4.59886C235.999 5.20199 234.711 5.72973 232.794 6.33286C231.065 6.63442 229.809 6.03129 228.772 6.18208L225.599 10.1024C223.776 12.3642 222.583 14.0228 220.91 13.4196C219.81 14.9275 218.24 15.1536 216.858 15.9075C215.444 17.6415 214.06 19.3755 212.648 21.1849C212.773 24.5021 210.197 23.8236 209.16 25.5576L204.383 25.1807C204.132 25.4822 203.127 25.8592 201.399 26.3115C201.149 26.6131 200.144 26.99 198.382 27.4424C198.226 27.6686 196.623 27.8947 193.607 28.2717C190.59 29.478 188.673 31.1366 186.38 30.5334C184.495 30.0811 182.547 30.1565 180.851 30.0811L177.018 28.5733C176.831 28.7994 175.856 29.101 174.126 29.6287C173.876 29.9303 172.871 30.3073 171.111 30.7596L168.217 34.3784L163.315 34.0014C163.158 33.8506 161.901 33.3229 159.544 32.569C158.477 31.1366 157.481 29.7041 156.403 28.4225C154.299 26.1607 152.727 27.5178 151.784 25.7084C151.281 24.7283 149.961 24.4267 148.926 23.7482C147.103 21.1095 145.218 18.3954 143.395 15.6814C140.944 15.0782 140.599 14.5505 140.254 14.0982C137.991 14.3997 137.614 14.7767 137.301 15.1536C134.441 13.6458 133.623 13.6458 133.12 13.5704C131.995 11.9118 131.016 10.4794 130.388 9.57468C129.075 9.12233 127.654 8.5192 126.114 7.84068C124.7 6.70981 123.507 5.80512 122.345 4.82504C119.014 5.27738 117.568 3.69417 115.903 2.71408C112.951 1.20626 112.606 0.753912 112.332 0.376956L107.423 0L103.023 0.829303C101.2 2.26174 99.3157 2.86486 97.4629 3.69417C95.8295 4.37269 94.0685 5.27738 92.6545 6.78521C89.7965 6.8606 89.4196 7.16216 88.7595 7.76529L85.0201 7.46373L83.1035 9.87624C81.7907 9.49929 80.748 10.3286 79.6472 11.0071C78.7096 11.6102 77.6369 11.9118 76.8192 12.6657C75.814 13.5704 74.9664 14.9275 73.9293 16.2091C71.6358 15.3044 70.9438 16.0583 70.2218 16.8876C66.985 18.1693 65.571 19.3755 64.1889 20.6572C63.2606 21.494 62.1091 21.8785 61.254 22.7757L59.3993 23.6954Z"></path></svg>