<svg xmlns="" >
    <symbol id="polologo" style="filter:url(#dropshadow);" class="no-js" >
        <path class="mob" d="M15.3 42.6c0.5-1.4 0.7-1.6 0.9-1.6 0.2 0 0.4 0.2 0.9 1.5 0.6 1.6 7.1 18.5 9.6 24.7 1.5 3.6 2.7 4.3 3.5 4.6 0.6 0.2 1.2 0.2 1.6 0.2 0.2 0 0.4 0 0.4 0.2 0 0.2-0.4 0.3-0.8 0.3 -0.6 0-3.6 0-6.4-0.1 -0.8 0-1.2 0-1.2-0.3 0-0.2 0.1-0.2 0.3-0.3 0.2-0.1 0.5-0.4 0.2-1.1l-3.8-10.1c-0.1-0.2-0.2-0.2-0.4-0.2h-8.8c-0.2 0-0.3 0.1-0.4 0.3l-2.5 7.3c-0.4 1-0.6 2-0.6 2.7 0 0.8 0.9 1.2 1.6 1.2h0.4c0.3 0 0.4 0.1 0.4 0.2 0 0.2-0.2 0.3-0.6 0.3 -1 0-2.7-0.1-3.2-0.1 -0.4 0-2.7 0.1-4.6 0.1 -0.5 0-0.8-0.1-0.8-0.3 0-0.2 0.2-0.2 0.4-0.2 0.3 0 0.9 0 1.2-0.1C4.4 71.7 5.3 70.2 6 68.1L15.3 42.6zM19.6 59c0.2 0 0.2-0.1 0.2-0.3L15.8 47.7c-0.2-0.6-0.4-0.6-0.6 0l-3.6 11.1c-0.1 0.2 0 0.3 0.1 0.3H19.6zM34.8 53.5c0-6.4 0-7.5-0.1-8.9 -0.1-1.4-0.4-2.1-1.8-2.3 -0.3-0.1-1-0.1-1.4-0.1 -0.2 0-0.3-0.1-0.3-0.2 0-0.2 0.2-0.3 0.7-0.3 0.9 0 2.1 0 3 0l1.7 0c0.8 0 9.1 0 10.1 0 0.8 0 1.4 0 1.8-0.2 0.2-0.1 0.4-0.2 0.6-0.2 0.2 0 0.2 0.2 0.2 0.4 0 0.3-0.2 0.8-0.3 1.9 0 0.4-0.1 2.2-0.2 2.7 0 0.2-0.1 0.5-0.3 0.5s-0.3-0.2-0.3-0.5c0-0.3-0.1-1-0.4-1.6 -0.2-0.5-1.2-1.3-2.8-1.3l-6.3-0.1c-0.2 0-0.4 0.1-0.4 0.4v11.3c0 0.2 0 0.4 0.3 0.4l5.2 0c0.7 0 1.3 0 1.8 0 1-0.1 1.5-0.2 1.9-0.7 0.2-0.2 0.3-0.4 0.5-0.4 0.2 0 0.2 0.1 0.2 0.3 0 0.2-0.2 0.9-0.3 2.3 -0.1 0.8-0.2 2.5-0.2 2.7 0 0.4 0 0.8-0.3 0.8 -0.2 0-0.3-0.2-0.3-0.4 0-0.4-0.1-1-0.2-1.5 -0.2-0.6-0.9-1.3-2.1-1.5 -1-0.1-5.5-0.1-6.2-0.1 -0.2 0-0.3 0.1-0.3 0.4v3.5c0 3.9 0 7.2 0.2 8.9 0.1 1.2 0.4 2.1 1.6 2.3 0.6 0.1 1.5 0.2 1.8 0.2 0.2 0 0.3 0.1 0.3 0.2 0 0.2-0.2 0.3-0.7 0.3 -2.3 0-4.8-0.1-5-0.1 -0.2 0-2.8 0.1-4 0.1 -0.5 0-0.7-0.1-0.7-0.3 0-0.1 0.1-0.2 0.3-0.2 0.4 0 0.9-0.1 1.2-0.2 0.8-0.2 1-1.1 1.2-2.3 0.2-1.7 0.2-5 0.2-8.9L34.8 53.5 34.8 53.5zM55.8 53.5c0-6.4 0-7.5-0.1-8.9 -0.1-1.4-0.4-2.1-1.8-2.3 -0.3-0.1-1-0.1-1.4-0.1 -0.2 0-0.3-0.1-0.3-0.2 0-0.2 0.2-0.3 0.7-0.3 1.8 0 4.4 0.1 4.6 0.1 0.5 0 3.6-0.1 4.8-0.1 2.6 0 5.3 0.2 7.5 1.8 1 0.7 2.8 2.7 2.8 5.6 0 3-1.3 6.1-5 9.5 3.4 4.3 6.1 7.9 8.5 10.5 2.2 2.3 4 2.8 5 3 0.8 0.1 1.4 0.1 1.6 0.1 0.2 0 0.4 0.1 0.4 0.2 0 0.2-0.2 0.3-1 0.3H79.4c-2.3 0-3.3-0.2-4.4-0.8 -1.8-0.9-3.2-2.9-5.5-6 -1.7-2.3-3.6-5-4.5-6.1 -0.2-0.2-0.3-0.2-0.5-0.2l-5-0.1c-0.2 0-0.3 0.1-0.3 0.3v1c0 3.9 0 7.2 0.2 8.9 0.1 1.2 0.4 2.1 1.6 2.3 0.6 0.1 1.5 0.2 1.8 0.2 0.2 0 0.3 0.1 0.3 0.2 0 0.2-0.2 0.3-0.7 0.3 -2.3 0-4.8-0.1-5-0.1 0 0-2.6 0.1-3.9 0.1 -0.4 0-0.7-0.1-0.7-0.3 0-0.1 0.1-0.2 0.3-0.2 0.4 0 0.9-0.1 1.2-0.2 0.8-0.2 1-1.1 1.2-2.3 0.2-1.7 0.2-5 0.2-8.9L55.8 53.5 55.8 53.5zM59.1 57.1c0 0.2 0.1 0.4 0.3 0.5 0.6 0.4 2.5 0.7 4.3 0.7 1 0 2.1-0.1 3.1-0.8 1.4-1 2.5-3.2 2.5-6.3 0-5.1-2.7-8.2-7.1-8.2 -1.2 0-2.3 0.1-2.7 0.2 -0.2 0.1-0.3 0.2-0.3 0.5V57.1zM90.2 60.7c0 3.9 0 7.2 0.2 8.9 0.1 1.2 0.4 2.1 1.6 2.3 0.6 0.1 1.5 0.2 1.8 0.2 0.2 0 0.3 0.1 0.3 0.2 0 0.2-0.2 0.3-0.7 0.3 -2.3 0-4.8-0.1-5-0.1s-2.8 0.1-4 0.1c-0.5 0-0.7-0.1-0.7-0.3 0-0.1 0.1-0.2 0.3-0.2 0.4 0 0.9-0.1 1.2-0.2 0.8-0.2 1-1.1 1.2-2.3 0.2-1.7 0.2-5 0.2-8.9v-7.2c0-6.4 0-7.5-0.1-8.9 -0.1-1.4-0.5-2.1-1.4-2.3 -0.4-0.1-1-0.2-1.3-0.2 -0.2 0-0.3-0.1-0.3-0.2 0-0.2 0.2-0.3 0.7-0.3 1.4 0 3.9 0.1 4.1 0.1 0.2 0 2.8-0.1 4-0.1 0.4 0 0.7 0.1 0.7 0.3 0 0.2-0.2 0.2-0.3 0.2 -0.3 0-0.5 0-1 0.1 -1.1 0.2-1.4 0.9-1.5 2.3 -0.1 1.3-0.1 2.5-0.1 8.9L90.2 60.7 90.2 60.7zM98.7 68.8c-4-3.6-5-8.2-5-12.1 0-2.7 0.9-7.5 4.6-11.2 2.5-2.5 6.2-4.4 12.5-4.4 1.6 0 3.9 0.1 5.9 0.5 1.6 0.3 2.9 0.5 4.2 0.6 0.4 0 0.5 0.2 0.5 0.5 0 0.3-0.1 0.8-0.2 2.3 -0.1 1.4-0.1 3.6-0.1 4.2 0 0.6-0.1 0.9-0.4 0.9 -0.3 0-0.3-0.3-0.3-0.9 0-1.6-0.7-3.3-1.7-4.2 -1.4-1.2-4.6-2.3-8.2-2.3 -5.5 0-8 1.6-9.4 3 -3 2.9-3.7 6.5-3.7 10.7 0 7.8 6 15 14.8 15 3.1 0 5.5-0.4 7.1-2.1 0.9-0.9 1.4-2.7 1.5-3.4 0.1-0.5 0.2-0.6 0.4-0.6 0.2 0 0.3 0.3 0.3 0.6 0 0.3-0.5 3.9-0.9 5.2 -0.2 0.8-0.3 0.9-1.1 1.2 -1.6 0.7-4.8 0.9-7.4 0.9C106.1 73.2 101.9 71.7 98.7 68.8zM134 42.6c0.5-1.4 0.7-1.6 0.9-1.6 0.2 0 0.4 0.2 0.9 1.5 0.6 1.6 7.1 18.5 9.6 24.7 1.5 3.6 2.7 4.3 3.5 4.6 0.6 0.2 1.2 0.2 1.6 0.2 0.2 0 0.4 0 0.4 0.2 0 0.2-0.4 0.3-0.8 0.3 -0.6 0-3.6 0-6.4-0.1 -0.8 0-1.2 0-1.2-0.3 0-0.2 0.1-0.2 0.3-0.3 0.2-0.1 0.5-0.4 0.2-1.1l-3.8-10.1c-0.1-0.2-0.2-0.2-0.4-0.2h-8.8c-0.2 0-0.3 0.1-0.4 0.3l-2.5 7.3c-0.4 1-0.6 2-0.6 2.7 0 0.8 0.9 1.2 1.6 1.2h0.4c0.3 0 0.4 0.1 0.4 0.2 0 0.2-0.2 0.3-0.6 0.3 -1 0-2.7-0.1-3.2-0.1 -0.4 0-2.7 0.1-4.6 0.1 -0.5 0-0.8-0.1-0.8-0.3 0-0.2 0.2-0.2 0.4-0.2 0.3 0 0.9 0 1.2-0.1 1.9-0.2 2.7-1.8 3.4-3.9L134 42.6zM138.3 59c0.2 0 0.2-0.1 0.2-0.3l-3.9-11.1c-0.2-0.6-0.4-0.6-0.6 0l-3.6 11.1c-0.1 0.2 0 0.3 0.1 0.3H138.3z" fill="#A8A53F"></path><path class="desktop" d="M161.4 1.9C161.9 0.3 162.1 0 162.4 0s0.5 0.2 1.1 1.7c0.7 1.8 8.3 21.8 11.3 29.1 1.7 4.3 3.1 5.1 4.1 5.4 0.7 0.2 1.4 0.3 1.9 0.3 0.3 0 0.5 0.1 0.5 0.3 0 0.3-0.4 0.4-1 0.4 -0.7 0-4.2 0-7.6-0.1 -0.9 0-1.4 0-1.4-0.3 0-0.2 0.1-0.3 0.3-0.3 0.3-0.1 0.6-0.5 0.3-1.3l-4.5-11.9c-0.1-0.2-0.2-0.3-0.4-0.3h-10.4c-0.2 0-0.4 0.1-0.5 0.4l-2.9 8.6c-0.4 1.2-0.7 2.4-0.7 3.2 0 1 1 1.4 1.8 1.4h0.5c0.3 0 0.5 0.1 0.5 0.3 0 0.3-0.3 0.4-0.7 0.4 -1.2 0-3.2-0.1-3.8-0.1 -0.5 0-3.2 0.1-5.5 0.1 -0.6 0-0.9-0.1-0.9-0.4 0-0.2 0.2-0.3 0.4-0.3 0.3 0 1 0 1.4-0.1 2.2-0.3 3.2-2.1 4.1-4.5L161.4 1.9zM166.4 21.2c0.2 0 0.2-0.1 0.2-0.3l-4.6-13c-0.2-0.7-0.5-0.7-0.7 0l-4.2 13c-0.1 0.2 0 0.3 0.1 0.3H166.4zM187.8 14.7c0-7.5 0-8.9-0.1-10.4 -0.1-1.6-0.5-2.4-2.1-2.8 -0.4-0.1-1.2-0.1-1.6-0.1 -0.2 0-0.4-0.1-0.4-0.3 0-0.3 0.2-0.4 0.8-0.4 1.1 0 2.4 0 3.5 0.1l2 0c1 0 10.8 0.1 11.9 0 0.9 0 1.7 0 2.1-0.2 0.3-0.1 0.5-0.3 0.7-0.3 0.2 0 0.3 0.2 0.3 0.4 0 0.3-0.2 0.9-0.4 2.3 -0.1 0.5-0.1 2.6-0.2 3.2 0 0.2-0.1 0.5-0.4 0.5 -0.2 0-0.3-0.2-0.3-0.6 0-0.4-0.1-1.2-0.4-1.8 -0.3-0.6-1.4-1.5-3.3-1.5l-7.4-0.1c-0.3 0-0.4 0.1-0.4 0.5v13.3c0 0.3 0.1 0.4 0.3 0.4l6.2 0c0.8 0 1.5 0 2.2 0 1.2-0.1 1.8-0.2 2.2-0.9 0.2-0.2 0.3-0.5 0.5-0.5 0.2 0 0.2 0.1 0.2 0.4 0 0.3-0.2 1.1-0.4 2.7 -0.1 1-0.2 2.9-0.2 3.2 0 0.4 0 0.9-0.3 0.9 -0.2 0-0.3-0.2-0.3-0.4 0-0.5-0.1-1.2-0.3-1.7 -0.2-0.7-1-1.5-2.5-1.7 -1.2-0.1-6.5-0.1-7.3-0.1 -0.2 0-0.3 0.1-0.3 0.4v4.1c0 4.6 0 8.4 0.2 10.5 0.1 1.4 0.4 2.5 1.9 2.7 0.7 0.1 1.7 0.2 2.2 0.2 0.3 0 0.4 0.1 0.4 0.3 0 0.2-0.2 0.4-0.8 0.4 -2.7 0-5.7-0.1-5.9-0.1 -0.2 0-3.3 0.1-4.7 0.1 -0.5 0-0.8-0.1-0.8-0.4 0-0.1 0.1-0.3 0.4-0.3 0.4 0 1-0.1 1.4-0.2 1-0.2 1.2-1.3 1.4-2.7 0.2-2 0.2-5.8 0.2-10.5L187.8 14.7 187.8 14.7zM216 14.7c0-7.5 0-8.9-0.1-10.4 -0.1-1.6-0.5-2.4-2.1-2.8 -0.4-0.1-1.2-0.1-1.6-0.1 -0.2 0-0.4-0.1-0.4-0.3 0-0.3 0.2-0.4 0.8-0.4 2.2 0 5.2 0.1 5.5 0.1 0.5 0 4.2-0.1 5.7-0.1 3 0 6.3 0.3 8.8 2.1 1.2 0.9 3.3 3.2 3.3 6.6 0 3.6-1.5 7.1-5.8 11.2 4 5.1 7.2 9.4 10 12.4 2.6 2.8 4.7 3.3 5.9 3.5 0.9 0.1 1.6 0.1 1.9 0.1 0.2 0 0.4 0.1 0.4 0.3 0 0.3-0.3 0.4-1.2 0.4h-3.4c-2.7 0-3.9-0.2-5.2-0.9 -2.1-1.1-3.8-3.5-6.5-7.1 -2-2.7-4.3-5.9-5.3-7.1 -0.2-0.2-0.3-0.3-0.6-0.3l-5.9-0.1c-0.2 0-0.3 0.1-0.3 0.4v1.2c0 4.6 0 8.4 0.2 10.5 0.1 1.4 0.4 2.5 1.9 2.7 0.7 0.1 1.7 0.2 2.2 0.2 0.3 0 0.4 0.1 0.4 0.3 0 0.2-0.2 0.4-0.8 0.4 -2.6 0-5.7-0.1-5.9-0.1 -0.1 0-3.1 0.1-4.5 0.1 -0.5 0-0.8-0.1-0.8-0.4 0-0.1 0.1-0.3 0.4-0.3 0.4 0 1-0.1 1.4-0.2 1-0.2 1.2-1.3 1.4-2.7 0.2-2 0.2-5.8 0.2-10.5v-8.5h0v0h0v0h0v0H216zM219.9 18.9c0 0.2 0.1 0.4 0.3 0.6 0.7 0.4 2.9 0.8 5.1 0.8 1.2 0 2.5-0.1 3.6-0.9 1.7-1.2 2.9-3.8 2.9-7.4 0-6-3.2-9.7-8.4-9.7 -1.4 0-2.8 0.1-3.2 0.3 -0.2 0.1-0.4 0.3-0.4 0.6L219.9 18.9 219.9 18.9zM259.1 23.2c0 4.6 0 8.4 0.2 10.5 0.1 1.4 0.4 2.5 1.9 2.7 0.7 0.1 1.7 0.2 2.2 0.2 0.3 0 0.4 0.1 0.4 0.3 0 0.2-0.2 0.4-0.8 0.4 -2.7 0-5.7-0.1-5.9-0.1 -0.2 0-3.3 0.1-4.7 0.1 -0.5 0-0.8-0.1-0.8-0.4 0-0.1 0.1-0.3 0.4-0.3 0.4 0 1-0.1 1.4-0.2 1-0.2 1.2-1.3 1.4-2.7 0.2-2 0.2-5.8 0.2-10.5v-8.5c0-7.5 0-8.9-0.1-10.4 -0.1-1.6-0.6-2.5-1.6-2.7 -0.5-0.1-1.2-0.2-1.5-0.2 -0.2 0-0.4-0.1-0.4-0.3 0-0.3 0.2-0.4 0.8-0.4 1.6 0 4.6 0.1 4.9 0.1 0.2 0 3.3-0.1 4.7-0.1 0.5 0 0.8 0.1 0.8 0.4 0 0.2-0.2 0.3-0.4 0.3 -0.3 0-0.6 0.1-1.2 0.1 -1.3 0.2-1.7 1.1-1.8 2.8 -0.1 1.5-0.1 2.9-0.1 10.4L259.1 23.2 259.1 23.2zM272.5 32.6c-4.7-4.2-5.8-9.7-5.8-14.3 0-3.2 1.1-8.9 5.4-13.2 2.9-2.9 7.3-5.2 14.7-5.2 1.9 0 4.6 0.1 7 0.6 1.8 0.3 3.4 0.6 4.9 0.7 0.5 0.1 0.6 0.2 0.6 0.5 0 0.4-0.1 1-0.2 2.7 -0.1 1.6-0.1 4.3-0.1 5 -0.1 0.7-0.1 1-0.4 1 -0.3 0-0.4-0.3-0.4-1 0-1.9-0.8-3.9-2-4.9 -1.7-1.4-5.4-2.8-9.7-2.8 -6.4 0-9.4 1.9-11.1 3.5 -3.5 3.4-4.4 7.7-4.4 12.6 0 9.2 7.1 17.7 17.4 17.7 3.6 0 6.5-0.4 8.4-2.4 1-1.1 1.6-3.2 1.8-4.1 0.1-0.5 0.2-0.7 0.5-0.7 0.2 0 0.3 0.3 0.3 0.7 0 0.3-0.6 4.5-1.1 6.2 -0.3 0.9-0.4 1-1.3 1.4 -1.9 0.8-5.6 1.1-8.7 1.1C281.2 37.9 276.4 36.1 272.5 32.6zM317.7 1.9C318.2 0.3 318.4 0 318.7 0c0.3 0 0.5 0.2 1.1 1.7 0.7 1.8 8.3 21.8 11.3 29.1 1.7 4.3 3.1 5.1 4.1 5.4 0.7 0.2 1.4 0.3 1.9 0.3 0.3 0 0.5 0.1 0.5 0.3 0 0.3-0.4 0.4-1 0.4 -0.7 0-4.2 0-7.6-0.1 -0.9 0-1.4 0-1.4-0.3 0-0.2 0.1-0.3 0.3-0.3 0.3-0.1 0.6-0.5 0.3-1.3l-4.5-11.9c-0.1-0.2-0.2-0.3-0.4-0.3h-10.4c-0.2 0-0.4 0.1-0.5 0.4l-2.9 8.6c-0.4 1.2-0.7 2.4-0.7 3.2 0 1 1 1.4 1.8 1.4h0.5c0.3 0 0.5 0.1 0.5 0.3 0 0.3-0.3 0.4-0.7 0.4 -1.2 0-3.2-0.1-3.8-0.1s-3.2 0.1-5.5 0.1c-0.6 0-0.9-0.1-0.9-0.4 0-0.2 0.2-0.3 0.4-0.3 0.3 0 1 0 1.4-0.1 2.2-0.3 3.2-2.1 4.1-4.5L317.7 1.9zM322.7 21.2c0.2 0 0.2-0.1 0.2-0.3l-4.6-13c-0.2-0.7-0.5-0.7-0.7 0l-4.2 13c-0.1 0.2 0 0.3 0.1 0.3H322.7z" fill="#A8A53F"></path><path class="polo" d="M11.5 14.7c0-7.5 0-8.9-0.1-10.4 -0.1-1.6-0.5-2.4-2.1-2.8C9 1.4 8.2 1.4 7.7 1.4c-0.2 0-0.4-0.1-0.4-0.3 0-0.3 0.2-0.4 0.8-0.4 2.2 0 5.1 0.1 5.5 0.1 1.1 0 3.9-0.1 6.1-0.1 6 0 8.2 2 9 2.8 1.1 1 2.4 3.2 2.4 5.7 0 6.9-5 11.5-11.9 11.5 -0.2 0-0.8 0-1 0 -0.2 0-0.5-0.1-0.5-0.3 0-0.4 0.3-0.4 1.3-0.4 4.7 0 8.4-3.4 8.4-7.9 0-1.6-0.1-4.8-2.7-7.4 -2.6-2.6-5.5-2.4-6.6-2.4 -0.8 0-1.6 0.1-2.1 0.3 -0.3 0.1-0.4 0.4-0.4 0.9v19.9c0 4.6 0 8.5 0.2 10.5 0.1 1.4 0.4 2.5 1.9 2.7 0.7 0.1 1.7 0.2 2.2 0.2 0.3 0 0.4 0.1 0.4 0.3 0 0.2-0.2 0.4-0.8 0.4 -2.7 0-5.7-0.1-5.9-0.1 -0.1 0-3.2 0.1-4.6 0.1 -0.5 0-0.8-0.1-0.8-0.4 0-0.1 0.1-0.3 0.4-0.3 0.4 0 1-0.1 1.4-0.2 1-0.2 1.2-1.3 1.4-2.7 0.2-2 0.2-5.8 0.2-10.5V14.7L11.5 14.7 11.5 14.7zM55.7 0c10.9 0 19 6.9 19 18.1 0 10.8-7.6 19.8-19.3 19.8 -13.2 0-18.7-10.3-18.7-19C36.7 11.1 42.4 0 55.7 0zM56.7 36c4.3 0 13.3-2.5 13.3-16.6 0-11.6-7.1-17.8-14.7-17.8 -8.1 0-14.1 5.3-14.1 15.9C41.2 28.8 48 36 56.7 36zM88.6 23.3c0 7.1 0.2 10.2 1.1 11.1 0.8 0.8 2 1.1 5.8 1.1 2.6 0 4.7-0.1 5.8-1.4 0.6-0.8 1.1-2 1.3-2.9 0-0.4 0.1-0.6 0.4-0.6 0.2 0 0.3 0.2 0.3 0.7 0 0.5-0.3 3.4-0.7 4.8 -0.3 1.1-0.5 1.3-3 1.3 -3.5 0-6-0.1-8-0.1 -2-0.1-3.5-0.1-4.9-0.1 -0.2 0-1 0-2 0 -1 0.1-2 0.1-2.7 0.1 -0.5 0-0.8-0.1-0.8-0.4 0-0.1 0.1-0.3 0.4-0.3 0.4 0 1-0.1 1.4-0.2 1-0.2 1.2-1.3 1.4-2.7 0.2-2 0.2-5.8 0.2-10.5v-8.5c0-7.5 0-8.9-0.1-10.4 -0.1-1.6-0.5-2.4-2.1-2.8 -0.4-0.1-1.2-0.1-1.6-0.1 -0.2 0-0.4-0.1-0.4-0.3 0-0.3 0.2-0.4 0.8-0.4 2.2 0 5.2 0.1 5.5 0.1 0.2 0 3.8-0.1 5.2-0.1 0.5 0 0.8 0.1 0.8 0.4 0 0.2-0.2 0.3-0.4 0.3 -0.3 0-1 0-1.6 0.1 -1.4 0.2-1.8 1.1-1.9 2.8C88.6 5.8 88.6 7.2 88.6 14.7L88.6 23.3 88.6 23.3zM125.1 0c10.9 0 19 6.9 19 18.1 0 10.8-7.6 19.8-19.3 19.8 -13.2 0-18.7-10.3-18.7-19C106.1 11.1 111.8 0 125.1 0zM126.1 36c4.3 0 13.3-2.5 13.3-16.6 0-11.6-7.1-17.8-14.7-17.8 -8.1 0-14.1 5.3-14.1 15.9C110.6 28.8 117.4 36 126.1 36zM124.9 1.4c-0.8 0.9-0.2 1.8-0.3 2.1 0 0.4 1.4 0.1 1.6 1.5 0 0.3 0 0.9 0 1.2 2.9 0.3 3.7 1.5 4.8 2.6 0.2 0.2 0.1 0.7 0.2 1 0 0.3 1.1 0.9 0.4 1.4 -0.4 0.3-1.2 0.6-1.2 0.6s-0.1 0.5-0.2 0.9c-0.1 0.4 0 1.2 0 1.5 0.1 1.8 1.5 1.2 2.4 5.7 0.1 0.2 0.5 0.7 0.4 0.9 -0.1 0.3-0.2 0.1-0.2 0.5 0 0.7 0.5 0.5 0.7 1.1 -0.1 0.1-0.7-0.1-0.9 0 -0.6 1.6-1.1 2.4-0.6 5.7 -0.8 0.1-1.1 0-1.8 0.1 -0.3-0.3 0.1-0.9 0-1.5 -0.1-0.4-0.7 0-0.8 0.2 -0.2 0.5-0.2 1.9-0.3 2.5 -0.6 0.6-1.5 2.4-1.7 4 -0.8 0.3-0.7 1.3-0.8 2.5 -1 0.3-1 0-1.9 0.1 0-1-0.6-1.9 0.8-1.8 0-0.1 0.1-0.5-0.1-0.6 -0.5-0.4 0.2-0.6 0.1-1.2 0-0.3 0.4-0.1 0.4-0.5 0-0.3 0-0.5 0-1.3 0-0.6 0.4-0.7 0.4-1 0-0.9 0-1.4 0.2-2 0-0.6-1.4-1.3-2-0.2 -0.6 1.1 0.3 3.8-1.2 5 -0.1 1 0 1.8-0.1 2.4 0 0.3 0.1 0.5 0 0.8 -0.7 0.1-1-0.4-1.6-0.4 0.7-0.2 0.4-0.8 0.4-1.2 0-0.5-0.8-0.1-0.9-0.2 0-0.7 0-0.9 0.1-1 0.2-0.2 0.6 0.1 0.6-0.2 0-1.4 0.1-3.2 0.1-4.6 0-1.8-1-0.9-1-1.7 0-0.6-0.1-2.7-0.1-4.5 0.4-1.6 1.1-1.6 1.1-2.4 0-1.1 0.4-1.3 0.9-2 0-0.1 1-1.7 1.5-2.6 0.1-0.2 0.8-0.9 0.8-1.6 -2.2-0.9-0.9-3.4-3.2-6 -0.4-0.4-0.3-2-0.1-2.2 0.9-1.1 1.5-2 1.6-3.9C123.9 1.3 124.1 1.2 124.9 1.4z" fill="#A8A53F"></path>
   </symbol></svg>